PathFileType  4	(X/Y/Z) C:\Users\antoi\Documents\MyRepositories\mobilecap\ResultsAnalysis
DataRate	CameraRate	NumFrames	NumMarkers	Units	OrigDataRate	OrigDataStartFrame	OrigNumFrames
100.0	100.0	4	51	mm	100.0	323	1288
Frame#	Time	r_knee			r_shank_antsup			r_ankle			r_calc			r_5meta			r_toe			L_knee			L_shank_antsup			L_ankle			L_calc			L_5meta			L_toe			r_sh2			r_sh3			r_sh4			L_sh2			L_sh3			r_thigh1			r_thigh2			r_thigh3			r_thigh4			r_thigh5			L_thigh1			L_thigh2			L_thigh3			L_thigh4			r.ASIS			r.PSIS			L.ASIS			L.PSIS			C7			R_Shoulder			L_Shoulder			R_Sternum			L_Sternum			R_humerus			R_elbow_med			R_elbow_lat			R_forearm			R_wrist_radius			R_wrist_ulna			L_humerus			L_elbow_med			L_elbow_lat			L_forearm			L_wrist_radius			L_wrist_ulna			R_HJC			L_HJC			R_HJC_reg			L_HJC_reg			
		X1	Y1	Z1	X2	Y2	Z2	X3	Y3	Z3	X4	Y4	Z4	X5	Y5	Z5	X6	Y6	Z6	X7	Y7	Z7	X8	Y8	Z8	X9	Y9	Z9	X10	Y10	Z10	X11	Y11	Z11	X12	Y12	Z12	X13	Y13	Z13	X14	Y14	Z14	X15	Y15	Z15	X16	Y16	Z16	X17	Y17	Z17	X18	Y18	Z18	X19	Y19	Z19	X20	Y20	Z20	X21	Y21	Z21	X22	Y22	Z22	X23	Y23	Z23	X24	Y24	Z24	X25	Y25	Z25	X26	Y26	Z26	X27	Y27	Z27	X28	Y28	Z28	X29	Y29	Z29	X30	Y30	Z30	X31	Y31	Z31	X32	Y32	Z32	X33	Y33	Z33	X34	Y34	Z34	X35	Y35	Z35	X36	Y36	Z36	X37	Y37	Z37	X38	Y38	Z38	X39	Y39	Z39	X40	Y40	Z40	X41	Y41	Z41	X42	Y42	Z42	X43	Y43	Z43	X44	Y44	Z44	X45	Y45	Z45	X46	Y46	Z46	X47	Y47	Z47	X48	Y48	Z48	X49	Y49	Z49	X50	Y50	Z50	X51	Y51	Z51	

323	3.22000000	-193.62864	457.05367	-386.90478	-186.51554	386.67795	-358.94678	-272.61961	93.44447	-392.14461	-339.04846	55.79908	-432.77627	-171.44050	44.95230	-358.93118	-127.14184	67.88154	-411.63971	-194.60771	454.59770	-805.92784	-166.96792	384.77874	-815.53788	-267.34743	94.48349	-790.68345	-339.01265	58.08590	-742.89122	-178.07985	42.38556	-821.75247	-127.28784	65.28218	-767.85308	-214.59805	276.36941	-353.68645	-256.62459	402.19504	-380.55010	-291.49150	291.55189	-378.90373	-252.35871	410.55466	-827.86751	-273.92277	290.86502	-831.18768	-279.44857	749.09075	-435.69152	-221.03041	657.34106	-406.29262	-256.93770	618.53544	-364.69767	-370.41345	708.54481	-381.57564	-312.41627	607.66106	-370.30061	-277.67003	730.50408	-779.80972	-204.30541	613.58353	-796.57362	-378.76242	673.57965	-797.76676	-296.76910	557.98533	-810.78846	-287.03054	817.67656	-468.13748	-440.99576	913.41163	-540.23300	-285.51882	815.40655	-719.29922	-445.29770	910.05028	-648.59237	-188.67923	1286.71069	-586.00922	-130.32211	1222.70615	-438.12902	-133.16818	1225.96647	-747.49525	-89.48967	1181.80809	-573.14766	-89.46377	1181.87436	-614.37470	-127.75257	1005.76659	-331.67322	-149.05060	888.47976	-375.06599	-139.25484	925.55220	-303.65568	-36.96295	967.91714	-333.22169	59.70983	1004.57755	-378.53507	79.37993	966.08794	-367.09862	-106.84332	1111.03075	-810.89466	-130.14047	888.23866	-814.51929	-128.45986	912.58240	-883.59217	-21.65905	952.71326	-868.78055	83.54310	980.04651	-822.04424	100.52307	947.81415	-830.16543	-378.27061	778.54157	-493.48936	-373.45941	777.52956	-693.72128	-374.79855	776.42163	-498.65771	-381.37187	771.28556	-664.22411	
324	3.23000000	-192.85778	456.76386	-385.71286	-185.94630	386.30833	-357.76254	-272.75460	93.18952	-391.96297	-339.20664	55.68173	-432.85642	-171.51780	45.06418	-358.82344	-127.27204	68.29257	-411.40969	-194.35009	453.95507	-807.66527	-166.19076	384.00512	-817.33375	-267.40564	94.28002	-790.86512	-339.04907	58.02732	-742.82057	-178.10485	42.35835	-821.77912	-127.33387	65.36661	-767.98283	-214.40884	276.08664	-352.73061	-255.65786	402.35048	-379.36222	-291.20096	291.63751	-378.43870	-251.57039	409.97013	-829.24972	-273.78096	290.18448	-831.61087	-283.26504	747.17546	-436.29613	-223.24495	656.75333	-406.32602	-258.29505	617.64595	-364.51709	-373.14089	705.78056	-381.18698	-313.53913	605.77909	-369.54909	-282.39479	728.19281	-780.80418	-206.92192	612.84466	-798.40812	-382.49192	669.45095	-797.93819	-298.33269	555.40891	-811.63065	-290.98313	812.56603	-468.18632	-443.69988	909.87899	-540.34797	-289.59131	809.86227	-719.75898	-448.23751	906.29758	-648.61473	-186.94673	1279.34058	-586.03117	-128.85731	1214.56607	-438.48940	-131.77629	1218.37782	-747.24193	-88.65496	1173.64358	-573.41158	-88.67520	1173.65666	-614.93746	-124.42353	998.32740	-331.79733	-144.59877	880.86477	-374.84943	-134.96280	918.13784	-303.36027	-33.58649	962.16198	-333.47355	62.19406	1000.28826	-379.45124	82.52557	962.07589	-368.10531	-104.80036	1104.07083	-811.06068	-125.90953	881.14841	-815.64240	-124.05336	905.80646	-884.43098	-18.09095	947.61708	-868.89438	86.47619	976.75489	-821.50181	103.89081	944.67545	-829.45616	-382.52877	774.35599	-493.51279	-377.96525	773.00634	-693.74860	-379.16345	772.31691	-498.50673	-386.11187	766.83134	-664.32094	
325	3.24000000	-191.88443	456.53179	-384.41557	-185.22882	385.80574	-356.51678	-272.87928	92.98650	-391.80445	-339.29864	55.55031	-432.91146	-171.63073	45.20807	-358.60634	-127.44146	68.75667	-411.07165	-193.98615	453.33126	-809.51604	-165.41769	383.13823	-819.00012	-267.53709	94.04669	-791.05262	-339.08947	58.03891	-742.79765	-178.14271	42.31983	-821.80885	-127.38517	65.42474	-768.12196	-214.25126	275.61433	-351.89709	-254.58921	402.51919	-378.01388	-290.79122	291.64525	-377.76000	-250.64784	409.42579	-830.52933	-273.37666	289.60466	-832.25438	-286.80398	744.71566	-436.84868	-225.18885	656.12626	-406.87622	-259.29076	616.90672	-364.57822	-375.46248	703.16448	-380.87180	-314.31040	604.20045	-368.70752	-286.98384	725.80627	-781.72837	-209.35240	612.08076	-800.21974	-386.03545	665.23545	-798.26656	-299.82979	552.82947	-812.47734	-294.80186	807.36773	-468.21262	-446.44006	906.13073	-540.33067	-293.59259	804.17659	-719.76540	-451.06441	902.31997	-648.68403	-185.36064	1271.93269	-586.15203	-127.41085	1206.25826	-438.80571	-130.37972	1210.62584	-747.18371	-87.82557	1165.15330	-573.50126	-87.98383	1165.44329	-614.93701	-121.13327	990.78748	-331.74875	-140.18309	873.02804	-374.58963	-130.66859	910.62987	-303.13185	-30.21136	956.22425	-333.91914	64.58330	995.73825	-380.55307	85.62313	957.98067	-369.05634	-102.77083	1096.97719	-811.16903	-121.55330	873.75691	-816.23989	-119.82913	898.87556	-885.16781	-14.62744	942.37487	-868.98539	89.17703	973.16494	-820.83014	107.17642	941.48779	-828.81140	-386.69663	770.04692	-493.36341	-382.30585	768.27803	-693.59994	-383.42656	768.06969	-498.39663	-390.50190	762.23887	-664.18316	
326	3.25000000	-190.77879	456.29564	-383.25677	-184.40538	385.18032	-355.38256	-272.96919	92.82610	-391.67373	-339.30841	55.44737	-432.94141	-171.72862	45.33648	-358.38463	-127.63834	69.20381	-410.81587	-193.51968	452.68121	-811.43422	-164.65898	382.30370	-820.76406	-267.70023	93.81792	-791.21565	-339.13049	57.99520	-742.72923	-178.18789	42.27385	-821.84452	-127.44876	65.47304	-768.28333	-213.94570	275.11182	-351.14053	-253.54710	402.30752	-376.81779	-290.24658	291.49986	-376.80988	-249.67768	408.85206	-831.81599	-272.94951	289.10754	-833.13219	-290.02585	742.28863	-438.09157	-227.05760	655.57314	-407.81162	-259.88381	616.27854	-364.67166	-377.58787	700.63407	-380.48413	-314.82620	602.81018	-367.82412	-291.34209	723.52032	-782.97728	-211.66642	611.27869	-802.08561	-389.36412	660.96342	-798.56576	-301.16856	550.15692	-813.37337	-298.56371	801.95814	-468.32071	-449.31953	902.21805	-540.21027	-297.40088	798.11931	-719.05937	-453.76462	898.18913	-648.77744	-183.86789	1264.39331	-586.36285	-125.98169	1197.83764	-439.11502	-129.05196	1202.70045	-747.12149	-86.97148	1156.32833	-573.04190	-87.09931	1157.48478	-613.32958	-117.86155	983.21166	-331.58112	-135.92418	864.96715	-374.12717	-126.45946	903.05145	-302.94569	-26.94615	950.15602	-334.46426	66.89313	990.97604	-381.75458	88.63051	953.62759	-370.20407	-100.81620	1089.77820	-811.21389	-117.22020	866.25009	-816.67548	-115.52881	891.78909	-885.75739	-11.22588	936.94724	-868.97921	91.60444	969.28894	-820.12239	110.33499	938.13696	-828.20747	-390.92475	765.59468	-492.99859	-386.50148	763.27297	-693.22880	-387.65529	763.62175	-498.47662	-394.42433	757.48964	-663.73178	
